<svg xmlns="http://www.w3.org/2000/svg" viewBox="0 0 1200 630" width="1200" height="630">
  <rect width="1200" height="630" fill="#F4EDE0"/>
  <rect x="0" y="0" width="1200" height="10" fill="#7C3AED"/>

  <!-- eyebrow -->
  <text x="88" y="150" font-family="'Courier New', monospace" font-size="24" letter-spacing="6" fill="#6B6259">PRESENTATION-SKILL-PACK</text>

  <!-- headline -->
  <text x="84" y="268" font-family="Georgia, 'Times New Roman', serif" font-style="italic" font-weight="700" font-size="84" fill="#2A2622">Turn rough notes into</text>
  <text x="84" y="368" font-family="Georgia, 'Times New Roman', serif" font-style="italic" font-weight="700" font-size="84" fill="#2A2622">a polished slide deck.</text>

  <!-- subtext -->
  <text x="88" y="448" font-family="Helvetica, Arial, sans-serif" font-size="30" fill="#6B6259">One install · Five themes · Nine layouts · Zero design skills required</text>

  <!-- chips -->
  <g font-family="'Courier New', monospace" font-size="22" fill="#2A2622">
    <rect x="88" y="500" width="210" height="46" rx="10" fill="#EDE4D3"/>
    <text x="120" y="529">Claude Code</text>
    <rect x="314" y="500" width="250" height="46" rx="10" fill="#EDE4D3"/>
    <text x="346" y="529">Cursor · Codex</text>
    <rect x="580" y="500" width="280" height="46" rx="10" fill="#EDE4D3"/>
    <text x="612" y="529">Gemini · Copilot</text>
  </g>

  <!-- corner mark -->
  <g transform="translate(1012,72)">
    <rect width="116" height="116" rx="26" fill="#2A2622"/>
    <rect x="22" y="26" width="72" height="56" rx="6" fill="#F4EDE0"/>
    <rect x="32" y="35" width="38" height="8" rx="4" fill="#7C3AED"/>
    <rect x="32" y="51" width="52" height="5" rx="2.5" fill="#2A2622" opacity="0.7"/>
    <rect x="32" y="62" width="52" height="5" rx="2.5" fill="#2A2622" opacity="0.45"/>
    <circle cx="80" cy="70" r="6" fill="#D97706"/>
  </g>
</svg>
